<?xml version="1.0" encoding="iso-8859-1"?>
<!-- Uploaded to: SVG Repo, www.svgrepo.com, Generator: SVG Repo Mixer Tools -->
<svg version="1.1" id="Layer_1" xmlns="http://www.w3.org/2000/svg" xmlns:xlink="http://www.w3.org/1999/xlink" 
	 viewBox="0 0 512.001 512.001" xml:space="preserve">
<circle style="fill:#CCCCCC;" cx="256" cy="256" r="256"/>
<rect x="63.918" y="112.076" style="fill:#FFFFFF;" width="383.996" height="287.999"/>
<g>
	<rect x="99.922" y="163.999" style="fill:#CCCCCC;" width="140" height="8"/>
	<rect x="99.922" y="187.998" style="fill:#CCCCCC;" width="140" height="8"/>
	<rect x="99.922" y="211.997" style="fill:#CCCCCC;" width="140" height="8"/>
	<rect x="99.922" y="235.996" style="fill:#CCCCCC;" width="140" height="8"/>
	<rect x="99.922" y="260.005" style="fill:#CCCCCC;" width="155.999" height="8"/>
	<rect x="99.922" y="284.004" style="fill:#CCCCCC;" width="179.998" height="8"/>
	<rect x="99.922" y="308.004" style="fill:#CCCCCC;" width="316.003" height="8"/>
	<rect x="99.922" y="332.003" style="fill:#CCCCCC;" width="316.003" height="8"/>
	<rect x="99.922" y="356.002" style="fill:#CCCCCC;" width="316.003" height="8"/>
</g>
<circle style="fill:#E21B1B;" cx="344.964" cy="216.002" r="58"/>
<path style="fill:#FFFFFF;" d="M341.68,255.201v-9.68c-5.18-0.02-10.251-1.488-14.64-4.24l2.32-6.4
	c4.094,2.664,8.875,4.082,13.76,4.08c6.8,0,11.36-3.92,11.36-9.36c0-5.28-3.76-8.48-10.8-11.36c-9.68-3.76-15.76-8.08-15.76-16.4
	c0.116-8.069,6.355-14.725,14.4-15.36v-9.68h5.92v9.28c4.356,0.023,8.629,1.182,12.4,3.36l-2.4,6.32
	c-3.627-2.166-7.776-3.299-12-3.28c-7.36,0-10.16,4.4-10.16,8.24c0,4.96,3.52,7.44,11.84,10.88c9.84,4,14.8,8.96,14.8,17.44
	c-0.168,8.474-6.68,15.467-15.12,16.241v9.92L341.68,255.201L341.68,255.201z"/>
</svg>