<?xml version="1.0" encoding="UTF-8"?>
<svg version="1.1" xmlns="http://www.w3.org/2000/svg" width="512" height="512">
<path d="M0 0 C1.62438831 -0.00302329 3.2487752 -0.00691366 4.87315959 -0.01159257 C9.32190283 -0.02185851 13.77056535 -0.01969432 18.21931517 -0.01541197 C23.02312118 -0.01294219 27.82690788 -0.02196207 32.63070679 -0.02944946 C42.03630724 -0.04219165 51.44187914 -0.04399073 60.84748677 -0.0416492 C68.49400735 -0.03986527 76.14051926 -0.04161728 83.7870388 -0.04587364 C84.87584705 -0.04646883 85.96465529 -0.04706402 87.08645773 -0.04767724 C89.29847315 -0.04888901 91.51048856 -0.05010315 93.72250398 -0.05131962 C114.46203543 -0.0621934 135.20155061 -0.06003349 155.94108298 -0.05393478 C174.90521315 -0.04876628 193.86929195 -0.06001958 212.83341197 -0.07903299 C232.31517349 -0.09841535 251.79691071 -0.10666666 271.27868193 -0.10290974 C282.21241457 -0.10099824 293.14610349 -0.10348031 304.07982826 -0.11762428 C313.38830712 -0.12954413 322.69671534 -0.1309362 332.00519518 -0.11883412 C336.75198986 -0.11294959 341.49865539 -0.11183424 346.24544144 -0.12383652 C350.59613714 -0.13470918 354.94659606 -0.13157553 359.29728075 -0.11757483 C360.8658554 -0.11493171 362.43444868 -0.1172823 364.00300501 -0.1253107 C379.60387898 -0.19957868 392.32971016 2.09545167 404.22819519 12.76069641 C411.88045508 20.80179065 416.15934486 31.39672158 416.17212296 42.40778637 C416.1759641 43.65166345 416.17980525 44.89554053 416.18376279 46.17711085 C416.1829826 47.55467878 416.18210382 48.93224665 416.18113708 50.30981445 C416.18372152 51.77543253 416.1867349 53.2410499 416.19014049 54.70666629 C416.19820452 58.73502723 416.19999973 62.76337034 416.20073795 66.79173839 C416.20258955 71.13612716 416.21013742 75.48050671 416.21687317 79.82489014 C416.23045279 89.32496125 416.23648064 98.82502814 416.24088383 108.32510734 C416.24364688 114.25756975 416.24788435 120.19003053 416.252388 126.12249184 C416.26458019 142.54937354 416.2748796 158.97625394 416.27826309 175.40314007 C416.27848266 176.45441845 416.27870222 177.50569683 416.27892844 178.58883213 C416.27914672 179.64261852 416.279365 180.69640491 416.27958989 181.78212422 C416.28003336 183.91747836 416.28047992 186.0528325 416.28092957 188.18818665 C416.281151 189.24739489 416.28137242 190.30660314 416.28160056 191.39790861 C416.28554828 208.55948244 416.30300171 225.72101381 416.32628909 242.88257124 C416.35000764 260.50419289 416.36246517 278.12579323 416.36363101 295.7474311 C416.36454749 305.6404688 416.37029295 315.53345117 416.38845062 325.42647362 C416.4038584 333.85090085 416.40896806 342.27525565 416.40071252 350.6996943 C416.39680842 354.9966129 416.39772387 359.29338565 416.41176987 363.59028625 C416.4245231 367.52777836 416.42329888 371.46501522 416.41117916 375.40250704 C416.40922462 376.82312075 416.41228934 378.24375262 416.42102352 379.66434082 C416.50484239 394.22497085 413.40208528 405.59002867 403.41569519 416.51069641 C391.63936118 427.63404058 377.3963787 428.56181897 362.08139038 428.52139282 C360.45700207 428.52441611 358.83261518 428.52830648 357.20823079 428.53298539 C352.75948755 428.54325133 348.31082503 428.54108714 343.86207521 428.5368048 C339.0582692 428.53433501 334.2544825 428.5433549 329.45068359 428.55084229 C320.04508314 428.56358448 310.63951124 428.56538356 301.23390361 428.56304202 C293.58738303 428.5612581 285.94087112 428.56301011 278.29435158 428.56726646 C276.66113921 428.56815925 276.66113921 428.56815925 274.99493266 428.56907007 C272.78291723 428.57028184 270.57090182 428.57149597 268.3588864 428.57271244 C247.61935495 428.58358622 226.87983977 428.58142631 206.1403074 428.5753276 C187.17617723 428.57015911 168.21209843 428.5814124 149.24797841 428.60042582 C129.76621689 428.61980817 110.28447967 428.62805948 90.80270845 428.62430257 C79.86897581 428.62239106 68.93528689 428.62487313 58.00156212 428.63901711 C48.69308326 428.65093695 39.38467504 428.65232902 30.0761952 428.64022694 C25.32940052 428.63434241 20.58273499 428.63322706 15.83594894 428.64522934 C11.48525324 428.656102 7.13479432 428.65296836 2.78410963 428.63896766 C1.21553499 428.63632453 -0.3530583 428.63867512 -1.92161462 428.64670352 C-17.5224886 428.72097151 -30.24831978 426.42594115 -42.14680481 415.76069641 C-49.7990647 407.71960217 -54.07795447 397.12467124 -54.09073257 386.11360645 C-54.09649429 384.24779083 -54.09649429 384.24779083 -54.10237241 382.34428197 C-54.10159222 380.96671405 -54.10071344 379.58914618 -54.0997467 378.21157837 C-54.10233114 376.7459603 -54.10534452 375.28034293 -54.1087501 373.81472653 C-54.11681414 369.7863656 -54.11860934 365.75802248 -54.11934757 361.72965443 C-54.12119917 357.38526566 -54.12874704 353.04088612 -54.13548279 348.69650269 C-54.14906241 339.19643158 -54.15509026 329.69636469 -54.15949345 320.19628549 C-54.1622565 314.26382308 -54.16649397 308.33136229 -54.17099762 302.39890099 C-54.18318981 285.97201928 -54.19348922 269.54513888 -54.19687271 253.11825275 C-54.19709228 252.06697437 -54.19731184 251.01569599 -54.19753806 249.93256069 C-54.19775634 248.8787743 -54.19797462 247.82498791 -54.19819951 246.7392686 C-54.19864298 244.60391446 -54.19908954 242.46856032 -54.19953918 240.33320618 C-54.19976061 239.27399793 -54.19998204 238.21478968 -54.20021018 237.12348422 C-54.2041579 219.96191038 -54.22161133 202.80037901 -54.24489871 185.63882158 C-54.26861726 168.01719993 -54.28107479 150.39559959 -54.28224063 132.77396172 C-54.28315711 122.88092402 -54.28890257 112.98794166 -54.30706024 103.0949192 C-54.32246802 94.67049197 -54.32757768 86.24613717 -54.31932214 77.82169852 C-54.31541804 73.52477993 -54.31633349 69.22800718 -54.33037949 64.93110657 C-54.34313272 60.99361447 -54.34190849 57.0563776 -54.32978877 53.11888578 C-54.32783424 51.69827208 -54.33089896 50.2776402 -54.33963314 48.85705201 C-54.42345201 34.29642197 -51.3206949 22.93136416 -41.33430481 12.01069641 C-29.5579708 0.88735224 -15.31498832 -0.04042615 0 0 Z M32.04069519 108.26069641 C32.04069519 122.12069641 32.04069519 135.98069641 32.04069519 150.26069641 C73.95069519 150.26069641 115.86069519 150.26069641 159.04069519 150.26069641 C159.04069519 136.40069641 159.04069519 122.54069641 159.04069519 108.26069641 C117.13069519 108.26069641 75.22069519 108.26069641 32.04069519 108.26069641 Z M249.66569519 115.51069641 C245.85974124 120.31985019 245.04069519 125.15878505 245.04069519 131.26069641 C244.17960144 131.36253235 243.31850769 131.46436829 242.43132019 131.56929016 C229.34177416 134.23847178 217.33802533 144.27677586 210.03215027 155.13252258 C203.28279359 165.86057667 201.37645919 177.56411473 203.51335144 190.01460266 C206.8783055 202.89008558 215.13049088 212.28571127 226.10319519 219.38569641 C238.47389393 226.61952935 251.58465528 230.48471472 265.32243347 234.28218079 C281.69247424 238.91247546 281.69247424 238.91247546 287.04069519 244.26069641 C287.51237596 249.26051261 287.15711039 252.28458046 284.04069519 256.26069641 C278.66876074 261.48341046 273.31249228 262.36436287 266.10319519 262.57319641 C259.48201135 262.44077273 254.64487662 261.44648833 249.43913269 257.07710266 C246.67033737 253.8257974 246.01393503 251.52707061 245.10319519 247.38569641 C243.22999815 240.27944097 241.25282023 235.90718252 234.97038269 231.95991516 C229.77321171 229.32511245 224.81173281 228.14123092 219.04069519 229.26069641 C213.22824639 231.35249214 208.30057294 233.82756682 205.04069519 239.26069641 C201.1203694 247.84535142 202.7956262 256.4133547 205.70085144 265.10835266 C207.79448692 270.03419474 210.7048439 274.10551323 214.04069519 278.26069641 C214.64784363 279.08569641 215.25499207 279.91069641 215.88053894 280.76069641 C222.33970555 288.23604293 232.77236403 294.04745965 242.04069519 297.26069641 C243.03069519 297.26069641 244.02069519 297.26069641 245.04069519 297.26069641 C245.07936707 298.23909485 245.07936707 298.23909485 245.11882019 299.23725891 C245.59732608 306.61059974 247.37074678 311.02469202 252.97819519 316.01069641 C258.87968023 320.34648134 263.83216103 320.98380956 271.04069519 320.26069641 C277.3585933 318.26002867 282.22924277 315.07157086 285.85319519 309.44819641 C287.25681365 306.20549622 287.25681365 306.20549622 287.15007019 302.28022766 C287.39933777 300.14863586 287.39933777 300.14863586 288.04069519 298.26069641 C290.68804352 296.60411262 292.58855686 295.71436491 295.47819519 294.76069641 C308.51368704 289.7574804 319.85527416 280.51694336 325.97819519 267.69819641 C330.94488298 255.50412155 331.57485783 243.76203053 327.04069519 231.26069641 C319.33442747 215.42003498 304.42304827 206.14832494 288.22624207 200.49067688 C283.34196266 198.89014496 278.41508068 197.43911812 273.47819519 196.01069641 C270.96154403 195.27508605 268.44700474 194.53397838 265.93621826 193.77857971 C264.39592745 193.3157353 262.85227335 192.86386063 261.30471802 192.42591858 C255.81610929 190.78534294 250.16143036 188.38143158 246.04069519 184.26069641 C245.69071407 179.01097962 245.46014356 175.41875636 249.04069519 171.26069641 C256.35101261 166.03399603 263.29705815 165.65655064 272.04069519 166.26069641 C277.92511518 167.37944093 282.53844772 169.21333977 286.04069519 174.26069641 C286.93550107 177.28013615 287.62802864 180.31077473 288.30632019 183.38569641 C289.93161936 189.74856977 293.82784238 193.50744239 299.04069519 197.26069641 C304.94281414 199.95514202 310.94863495 200.10587405 317.10319519 198.26069641 C322.82800748 195.88947239 326.45981035 191.01006136 329.47819519 185.76069641 C331.70132566 175.88011655 328.7865033 165.00640142 323.60319519 156.47554016 C314.63673559 143.76558367 302.7599364 135.16711015 288.04069519 130.26069641 C287.94272644 129.60843079 287.84475769 128.95616516 287.74382019 128.28413391 C286.49415169 120.98003697 284.6166238 116.02791134 278.54069519 111.44819641 C269.1954959 104.88531782 257.15173654 107.60876387 249.66569519 115.51069641 Z M32.04069519 193.26069641 C32.04069519 207.12069641 32.04069519 220.98069641 32.04069519 235.26069641 C60.09069519 235.26069641 88.14069519 235.26069641 117.04069519 235.26069641 C117.04069519 221.40069641 117.04069519 207.54069641 117.04069519 193.26069641 C88.99069519 193.26069641 60.94069519 193.26069641 32.04069519 193.26069641 Z M32.04069519 278.26069641 C32.04069519 292.12069641 32.04069519 305.98069641 32.04069519 320.26069641 C73.95069519 320.26069641 115.86069519 320.26069641 159.04069519 320.26069641 C159.04069519 306.40069641 159.04069519 292.54069641 159.04069519 278.26069641 C117.13069519 278.26069641 75.22069519 278.26069641 32.04069519 278.26069641 Z " fill="#000000" transform="translate(74.95930480957031,41.73930358886719)"/>
</svg>
